<?xml version="1.0" encoding="UTF-8"?>
<svg width="348px" height="36px" viewBox="0 0 348 36" version="1.1" xmlns="http://www.w3.org/2000/svg" xmlns:xlink="http://www.w3.org/1999/xlink">
    <!-- Generator: Sketch 43.2 (39069) - http://www.bohemiancoding.com/sketch -->
    <title>header-logo</title>
    <desc>Created with Sketch.</desc>
    <defs></defs>
    <g id="Site" stroke="none" stroke-width="1" fill="none" fill-rule="evenodd">
        <g id="Home" transform="translate(-30.000000, -39.000000)">
            <g id="header-logo" transform="translate(30.000000, 39.000000)">
                <g id="Group-4">
                    <text id="Acupuncture-of-Palo" font-family="Baskerville" font-size="28" font-weight="normal" letter-spacing="0.699999809" fill="#FFFFFF">
                        <tspan x="43" y="28">Acupuncture of Palo Alto</tspan>
                    </text>
                    <g id="Group-3" fill="#9ADA53">
                        <path d="M34.6828612,18.6369552 C33.7865776,20.1813333 32.1751448,21.3809353 30.0208612,22.1312338 C28.5894582,20.2935224 26.8118015,18.9576517 24.9827866,18.1969552 C25.0219955,18.3890448 25.0429806,18.5860597 25.0429806,18.7869055 C25.0429806,18.9844677 25.0219955,19.1787463 24.9844433,19.3675522 C26.3816075,20.0335721 27.7417716,21.087602 28.8920851,22.4721791 C26.4307567,23.0894925 24.0340403,22.9318806 22.1658164,22.1651642 C22.0592343,22.1985473 21.9509955,22.2286468 21.8405478,22.2549154 C21.7687567,22.5482488 21.6704582,22.826806 21.5533836,23.0911343 C22.8229806,23.6460597 24.3051896,23.947602 25.8890104,23.947602 C27.0862642,23.947602 28.3398463,23.7675522 29.5967418,23.4107363 C30.882906,25.2796418 31.4644134,27.1928756 31.2628463,28.9627264 C31.0662493,30.6838706 30.1666522,32.1642189 28.6612493,33.2439701 C27.155294,34.3237214 25.455503,34.7073532 23.7441149,34.3532736 C21.9786075,33.9882488 20.3213388,32.8362587 18.929697,31.0302886 C20.3815328,28.9200398 21.1905627,26.5443682 21.2010552,24.2863582 C21.2016075,24.1128756 21.1900104,23.9454129 21.1800701,23.777403 C20.8757866,24.2354627 20.4980552,24.6190945 20.0684134,24.9003881 C19.9391896,26.6330249 19.3096373,28.426408 18.2526522,30.0714826 C17.1525925,28.3410348 16.5545179,26.4912836 16.4540104,24.7871045 C16.0348612,24.4779005 15.6709358,24.0707363 15.3843239,23.5896915 C15.2070552,25.9363582 15.9277269,28.6135721 17.5706373,31.027005 C14.7768612,34.6186965 10.9835328,35.4806368 7.82859254,33.1974527 C6.32760746,32.1111343 5.43518955,30.6269552 5.24687612,28.9047164 C5.05248806,27.127204 5.64669701,25.209592 6.95163731,23.339592 C8.22012985,23.7073532 9.50187612,23.9027264 10.7438612,23.9027264 C11.9245478,23.9027264 13.0671299,23.7358109 14.1246672,23.4014328 C14.4676075,23.2930746 14.7862493,23.1600896 15.0966075,23.0188955 C14.9933388,22.7759104 14.9060851,22.5214328 14.8409209,22.2549154 C14.6951299,22.2198905 14.5532045,22.177204 14.4140403,22.1306866 C14.2124731,22.2133234 14.0053836,22.2904876 13.788906,22.3588955 C11.9433239,22.9433731 9.79456269,22.9548657 7.66181642,22.4065075 C8.81820448,21.0301393 10.2065328,19.9602388 11.6848761,19.2903881 C11.6567119,19.1256617 11.6384881,18.958199 11.6384881,18.7869055 C11.6384881,18.5455622 11.6710701,18.3113333 11.7268463,18.0836716 C9.78517463,18.8465572 7.9732791,20.2327761 6.53414478,22.0584478 C4.37433881,21.2939204 2.76345821,20.0806368 1.87490597,18.5247662 C1.01451791,17.0170547 0.865413433,15.2953632 1.44526418,13.5457612 C2.02456269,11.7956119 3.17377164,10.496408 4.76863731,9.78715423 C5.63896567,9.40023881 6.61366716,9.20705473 7.66457761,9.20705473 C8.60062239,9.20705473 9.59962239,9.36904478 10.6345179,9.67660697 C10.7068612,12.2038706 11.4457567,14.578995 12.7468313,16.4063085 C13.0091448,16.1644179 13.3106672,15.9526269 13.6425627,15.7742189 C12.5380851,14.2188955 11.8787119,12.2153632 11.7505925,10.0580498 C13.5050552,10.7541692 15.0187418,11.7884975 16.1331597,13.049393 C16.4114881,12.7916318 16.7223985,12.5842189 17.0553985,12.4315323 C15.7300254,10.8942687 13.8778164,9.66183085 11.737891,8.88854726 C11.8085776,6.6261592 12.4756821,4.65327363 13.6917119,3.33929353 C14.8674284,2.06909453 16.464503,1.33138308 18.3117418,1.33138308 L18.3382493,1.33138308 C20.1970851,1.33138308 21.7985776,2.08989055 22.9709806,3.37431841 C24.1798313,4.69924378 24.8347866,6.61685572 24.8872493,8.88362189 C22.7053537,9.65581095 20.8912493,10.92601 19.6001149,12.3937711 C19.9281448,12.5404378 20.2340851,12.7544179 20.5102045,13.0028756 C21.5948015,11.8120299 23.087503,10.7897413 24.8657119,10.0974527 C24.7226821,12.2241194 24.0627567,14.2002886 22.9726373,15.737005 C23.3100552,15.9115821 23.6182045,16.1217313 23.8860403,16.3608856 C25.1633687,14.5516318 25.8983985,12.2180995 25.9851,9.72804975 C27.0006672,9.43362189 27.9797866,9.27929353 28.8992642,9.27929353 C29.9722642,9.27929353 30.966294,9.47959204 31.8493239,9.87964179 C33.4392194,10.5992935 34.5795925,11.9067065 35.147294,13.6606866 C35.7144433,15.4146667 35.5537418,17.1352637 34.6828612,18.6369552 M36.1987567,13.3268557 C35.5438015,11.3008856 34.1621,9.72312438 32.3082343,8.88416915 C30.501309,8.06546269 28.3232791,7.97406965 25.9795776,8.59466667 C25.8652642,6.20367164 25.1197418,4.09397015 23.7899507,2.63715423 C22.4237119,1.1398408 20.4886672,0.236855721 18.3421149,0.236855721 L18.3128463,0.236855721 C16.177891,0.236855721 14.2483687,1.12178109 12.8777119,2.60322388 C11.5357716,4.05292537 10.775891,6.09859701 10.6472194,8.49123383 C8.3090403,7.85476617 6.13045821,7.95710448 4.31690597,8.76267662 C2.45751791,9.58959204 1.06532388,11.1706368 0.396010448,13.1916816 C-0.273302985,15.2127264 -0.0894074627,17.29999 0.914010448,19.0572537 C1.89202537,20.7712836 3.60065224,22.1153632 5.86538358,22.976209 C4.53283134,24.9846667 3.93475672,27.0631741 4.14847313,29.0212836 C4.36826418,31.0286468 5.44347313,32.8258607 7.17695075,34.0807363 C8.4299806,34.987005 9.95526418,35.5337214 11.5694582,35.5337214 C13.788906,35.5337214 16.1767866,34.4999403 18.2532045,31.9491443 C19.7685478,33.8207861 21.5754731,35.0225771 23.5182493,35.4248159 C23.9953836,35.5233234 24.4769358,35.5720299 24.9557269,35.5720299 C26.4793537,35.5720299 27.985309,35.0789453 29.3084731,34.1305373 C31.0474731,32.8838706 32.1315179,31.0921294 32.3601448,29.0858607 C32.582697,27.1354129 31.9989806,25.0634726 30.6852045,23.0561095 C32.9438612,22.2100398 34.6530403,20.8840199 35.639891,19.1825771 C36.6554582,17.4318806 36.8542642,15.3522786 36.1987567,13.3268557" id="Fill-1"></path>
                        <path d="M30.8043224,15.820791 C30.292397,15.9882537 29.7385015,15.7124328 29.5689642,15.2045721 C29.3999791,14.697806 29.6794119,14.1489005 30.1907851,13.9814378 C30.7027104,13.8139751 31.256606,14.089796 31.425591,14.5971095 C31.5951284,15.1044229 31.3162478,15.6533284 30.8043224,15.820791 M17.3114716,6.26830348 C17.3114716,5.73417413 17.7499493,5.29964677 18.2889343,5.29964677 C18.8279194,5.29964677 19.266397,5.73417413 19.266397,6.26830348 C19.266397,6.80243284 18.8279194,7.23750746 18.2889343,7.23750746 C17.7499493,7.23750746 17.3114716,6.80243284 17.3114716,6.26830348 M25.4155761,28.3618856 C25.8501881,28.0466617 26.4631731,28.140791 26.7818149,28.5714876 C27.0999045,29.0027313 27.0054716,29.6096468 26.5708597,29.9254179 C26.1356955,30.2411891 25.5227104,30.1470597 25.2046209,29.7163632 C24.8859791,29.2851194 24.9804119,28.6776567 25.4155761,28.3618856 M11.7239194,29.848801 C11.408591,30.2816866 10.7961582,30.3790995 10.3593373,30.0666119 C9.92251642,29.7535771 9.82421791,29.1466617 10.1395463,28.7137761 C10.4554269,28.2808905 11.0678597,28.1829303 11.5046806,28.4959652 C11.9415015,28.809 12.0398,29.4159154 11.7239194,29.848801 M7.09394925,15.4212886 C6.92827761,15.9291493 6.37548657,16.208801 5.86300896,16.0446219 C5.3499791,15.8798955 5.06778507,15.3326318 5.23345672,14.8247711 C5.3996806,14.3163632 5.9519194,14.0367114 6.46439701,14.2014378 C6.97742687,14.3656169 7.26017313,14.9128806 7.09394925,15.4212886 M32.4742925,14.2534279 C32.1142328,13.1736766 30.9346507,12.5853682 29.8445313,12.9421841 C28.9344418,13.2398955 28.3788896,14.1051194 28.4269343,15.0108408 L18.8897701,18.1756667 L18.8489045,8.24666169 C19.724203,8.00203483 20.3708746,7.2128806 20.3708746,6.26830348 C20.3708746,5.13108955 19.4370388,4.2051194 18.2889343,4.2051194 C17.1413821,4.2051194 16.206994,5.13108955 16.206994,6.26830348 C16.206994,7.21835323 16.8619493,8.01243284 17.7444269,8.25158706 L17.7852925,18.2238259 L8.23487463,15.2034776 C8.27021791,14.3032289 7.71135224,13.450592 6.80457612,13.159995 C5.71224776,12.8097463 4.5359791,13.4051692 4.18254627,14.488204 C3.82966567,15.5701443 4.43050149,16.7358159 5.52282985,17.0860647 C6.43512836,17.3783035 7.39878507,17.0056169 7.89966567,16.2465622 L17.4865313,19.2778557 L11.6471582,27.3527313 C10.7939493,27.0429801 9.8026806,27.3073085 9.24436716,28.0723831 C8.57229254,28.9945224 8.78214328,30.2871592 9.71266567,30.9537264 C10.6426358,31.6197463 11.9470239,31.4117861 12.6190985,30.4896468 C13.1807254,29.7196468 13.1194269,28.6962637 12.5450985,27.9902935 L18.4071134,19.8842239 L24.3619045,27.8759154 C23.8019343,28.5851692 23.7505761,29.6008905 24.3133075,30.3626816 C24.9914567,31.2804428 26.2969493,31.4807413 27.2230537,30.8081542 C28.1491582,30.1366617 28.3507254,28.8429303 27.6725761,27.9251692 C27.1065313,27.1584527 26.1053224,26.9012388 25.2504567,27.2252189 L19.2724716,19.2034279 L28.7781582,16.0484527 C29.2867701,16.7954677 30.246009,17.1561144 31.1505761,16.8600448 C32.2406955,16.5032289 32.8349045,15.3337264 32.4742925,14.2534279" id="Fill-4"></path>
                    </g>
                </g>
            </g>
        </g>
    </g>
</svg>