<?xml version="1.0" encoding="utf-8"?>
<!-- Generator: Adobe Illustrator 21.1.0, SVG Export Plug-In . SVG Version: 6.00 Build 0)  -->
<svg version="1.1" id="Layer_1" xmlns="http://www.w3.org/2000/svg" xmlns:xlink="http://www.w3.org/1999/xlink" x="0px" y="0px"
	 viewBox="0 0 348 36" style="enable-background:new 0 0 348 36;" xml:space="preserve">
<style type="text/css">
	.st0{enable-background:new    ;}
	.st1{fill:#FFFFFF;}
	.st2{fill:#9ADA53;}
</style>
<title>header-logo</title>
<desc>Created with Sketch.</desc>
<g id="Site">
	<g id="Home" transform="translate(-30.000000, -39.000000)">
		<g id="header-logo" transform="translate(30.000000, 39.000000)">
			<g id="Group-4">
				<g class="st0">
					<path class="st1" d="M55.1,21.2h-7l-0.5,1.2c-0.7,1.7-1.1,2.8-1.1,3.3c0,0.6,0.2,1,0.6,1.3c0.4,0.3,0.9,0.4,1.5,0.4V28H43v-0.6
						c0.8-0.1,1.4-0.4,1.8-0.9c0.4-0.5,0.9-1.4,1.4-2.9c0-0.1,0.3-0.7,0.7-1.6l5.4-12.9h0.5l6.2,14.7l0.8,1.9c0.2,0.4,0.4,0.8,0.8,1
						c0.3,0.3,0.8,0.4,1.5,0.5V28h-7.3v-0.6c0.9,0,1.5-0.1,1.8-0.2s0.5-0.4,0.5-0.8c0-0.2-0.2-0.8-0.6-1.8L55.1,21.2z M54.9,20.5
						l-3.3-7.9l-3.3,7.9H54.9z"/>
					<path class="st1" d="M73.3,25.3h0.6c-0.6,2.1-2.2,3.2-4.6,3.2c-1.6,0-2.9-0.5-4-1.6c-1.1-1.1-1.6-2.5-1.6-4.3
						c0-1.8,0.6-3.3,1.8-4.5s2.6-1.7,4.2-1.7c1,0,1.9,0.2,2.7,0.6c0.8,0.4,1.2,0.9,1.2,1.6c0,0.2-0.1,0.4-0.2,0.6s-0.4,0.3-0.6,0.3
						c-0.6,0-1-0.4-1.1-1.1c-0.1-0.5-0.3-0.9-0.5-1.1c-0.2-0.2-0.7-0.3-1.4-0.3c-1.2,0-2.1,0.4-2.8,1.3s-0.9,2.1-0.9,3.8
						c0,1.8,0.3,3.1,1,4.1c0.7,1,1.7,1.5,3,1.5C71.7,27.7,72.8,26.9,73.3,25.3z"/>
					<path class="st1" d="M87.4,16.8v7.3c0,1.2,0,2,0.1,2.3c0,0.3,0.2,0.5,0.4,0.7s0.6,0.2,1.3,0.2V28c-1.4,0-2.4,0.2-3,0.4h-0.2
						c-0.3-0.5-0.4-1.4-0.5-2.6c-0.6,0.9-1.2,1.5-1.9,2c-0.7,0.4-1.5,0.7-2.4,0.7c-0.7,0-1.4-0.2-2-0.5s-1-0.8-1.2-1.3
						c-0.2-0.5-0.3-1.2-0.3-2.2v-3.8c0-1.3,0-2.1-0.1-2.4c0-0.3-0.2-0.5-0.4-0.6c-0.2-0.1-0.7-0.2-1.3-0.2v-0.6h3.8v7.8
						c0,0.8,0,1.3,0.1,1.7c0.1,0.3,0.3,0.6,0.7,0.9c0.4,0.3,0.8,0.4,1.3,0.4c0.7,0,1.4-0.2,2-0.7c0.6-0.5,1.1-0.9,1.3-1.5
						s0.3-1.3,0.3-2.2v-2.5c0-1.2,0-2,0-2.2s-0.1-0.5-0.3-0.7s-0.6-0.3-1.3-0.3h-0.3v-0.6H87.4z"/>
					<path class="st1" d="M94,16.4h0.4c0.2,0.5,0.2,1.1,0.2,1.8c0.6-0.6,1.2-1.1,1.9-1.4s1.4-0.5,2.1-0.5c1.5,0,2.8,0.5,3.9,1.6
						c1,1.1,1.5,2.5,1.5,4.3c0,1.8-0.5,3.2-1.6,4.4c-1,1.2-2.4,1.8-4.1,1.8c-0.7,0-1.4-0.1-2-0.4c-0.6-0.3-1.2-0.7-1.8-1.2V31
						c0,1.3,0,2.1,0.1,2.4c0,0.3,0.2,0.5,0.4,0.6c0.2,0.1,0.7,0.2,1.3,0.2v0.6h-5.9v-0.6H91c0.6,0,1.1-0.1,1.3-0.3
						c0.2-0.2,0.3-0.4,0.3-0.7c0-0.3,0-1,0-2.3V20.9c0-1.2,0-1.9,0-2.3c0-0.3-0.2-0.5-0.4-0.7c-0.2-0.2-0.6-0.2-1.2-0.2h-0.4V17
						C91.5,16.9,92.6,16.7,94,16.4z M94.6,25.9c0.5,0.6,1,1.1,1.6,1.4c0.6,0.3,1.1,0.5,1.7,0.5c1,0,1.9-0.4,2.7-1.3s1.1-2.3,1.1-4.2
						c0-1.7-0.4-2.9-1.1-3.8S99,17.2,98,17.2c-0.6,0-1.2,0.2-1.8,0.5c-0.6,0.3-1.1,0.8-1.6,1.4V25.9z"/>
					<path class="st1" d="M118,16.8v7.3c0,1.2,0,2,0.1,2.3c0,0.3,0.2,0.5,0.4,0.7s0.6,0.2,1.3,0.2V28c-1.4,0-2.4,0.2-3,0.4h-0.2
						c-0.3-0.5-0.4-1.4-0.5-2.6c-0.6,0.9-1.2,1.5-1.9,2c-0.7,0.4-1.5,0.7-2.4,0.7c-0.7,0-1.4-0.2-2-0.5s-1-0.8-1.2-1.3
						c-0.2-0.5-0.3-1.2-0.3-2.2v-3.8c0-1.3,0-2.1-0.1-2.4c0-0.3-0.2-0.5-0.4-0.6c-0.2-0.1-0.7-0.2-1.3-0.2v-0.6h3.8v7.8
						c0,0.8,0,1.3,0.1,1.7c0.1,0.3,0.3,0.6,0.7,0.9c0.4,0.3,0.8,0.4,1.3,0.4c0.7,0,1.4-0.2,2-0.7c0.6-0.5,1.1-0.9,1.3-1.5
						s0.3-1.3,0.3-2.2v-2.5c0-1.2,0-2,0-2.2s-0.1-0.5-0.3-0.7s-0.6-0.3-1.3-0.3H114v-0.6H118z"/>
					<path class="st1" d="M124.9,16.4h0.4c0.2,0.6,0.3,1.3,0.4,2.3c0.7-0.8,1.3-1.4,2.1-1.7c0.7-0.4,1.5-0.6,2.3-0.6
						c0.9,0,1.6,0.2,2.2,0.6c0.6,0.4,0.9,0.8,1.1,1.4s0.2,1.3,0.2,2.4v3.5c0,1.3,0,2.1,0.1,2.4c0,0.3,0.2,0.5,0.4,0.6
						c0.2,0.1,0.7,0.2,1.3,0.2V28h-5.7v-0.6h0.3c0.7,0,1.1-0.1,1.3-0.3c0.2-0.2,0.3-0.4,0.3-0.7s0-1,0-2.3v-3.6c0-0.9,0-1.5-0.1-1.9
						c-0.1-0.4-0.3-0.7-0.7-1c-0.4-0.3-0.9-0.4-1.4-0.4c-0.7,0-1.3,0.2-1.9,0.6c-0.6,0.4-1.2,1-1.7,1.8v4.6c0,1.3,0,2.1,0.1,2.4
						c0,0.3,0.2,0.5,0.4,0.6c0.2,0.1,0.7,0.2,1.3,0.2V28h-5.7v-0.6c0.6,0,1.1-0.1,1.3-0.2s0.4-0.3,0.5-0.6c0.1-0.3,0.1-1.1,0.1-2.4
						v-3.3c0-1.3,0-2.1-0.1-2.4c-0.1-0.3-0.2-0.5-0.4-0.6c-0.2-0.1-0.7-0.2-1.3-0.2V17C122.8,16.9,123.9,16.7,124.9,16.4z"/>
					<path class="st1" d="M147.3,25.3h0.6c-0.6,2.1-2.2,3.2-4.6,3.2c-1.6,0-2.9-0.5-4-1.6c-1.1-1.1-1.6-2.5-1.6-4.3
						c0-1.8,0.6-3.3,1.8-4.5s2.6-1.7,4.2-1.7c1,0,1.9,0.2,2.7,0.6c0.8,0.4,1.2,0.9,1.2,1.6c0,0.2-0.1,0.4-0.2,0.6s-0.4,0.3-0.6,0.3
						c-0.6,0-1-0.4-1.1-1.1c-0.1-0.5-0.3-0.9-0.5-1.1c-0.2-0.2-0.7-0.3-1.4-0.3c-1.2,0-2.1,0.4-2.8,1.3s-0.9,2.1-0.9,3.8
						c0,1.8,0.3,3.1,1,4.1c0.7,1,1.7,1.5,3,1.5C145.7,27.7,146.8,26.9,147.3,25.3z"/>
					<path class="st1" d="M156.9,17.4h-3.4v6.8c0,1,0,1.7,0.1,2.1c0.1,0.4,0.3,0.6,0.6,0.9c0.3,0.2,0.6,0.3,1,0.3
						c0.7,0,1.2-0.4,1.7-1.1l0.4,0.3c-0.3,0.6-0.7,1.1-1.3,1.4c-0.6,0.3-1.1,0.5-1.7,0.5c-0.7,0-1.2-0.2-1.7-0.6
						c-0.5-0.4-0.8-0.8-0.9-1.4s-0.2-1.4-0.2-2.7v-6.3H150v-0.6c0.7,0,1.4-0.3,2-0.9c0.6-0.6,1-1.5,1.1-2.6h0.4v3.5h3.4V17.4z"/>
					<path class="st1" d="M170.2,16.8v7.3c0,1.2,0,2,0.1,2.3c0,0.3,0.2,0.5,0.4,0.7s0.6,0.2,1.3,0.2V28c-1.4,0-2.4,0.2-3,0.4h-0.2
						c-0.3-0.5-0.4-1.4-0.5-2.6c-0.6,0.9-1.2,1.5-1.9,2c-0.7,0.4-1.5,0.7-2.4,0.7c-0.7,0-1.4-0.2-2-0.5s-1-0.8-1.2-1.3
						c-0.2-0.5-0.3-1.2-0.3-2.2v-3.8c0-1.3,0-2.1-0.1-2.4c0-0.3-0.2-0.5-0.4-0.6c-0.2-0.1-0.7-0.2-1.3-0.2v-0.6h3.8v7.8
						c0,0.8,0,1.3,0.1,1.7c0.1,0.3,0.3,0.6,0.7,0.9c0.4,0.3,0.8,0.4,1.3,0.4c0.7,0,1.4-0.2,2-0.7c0.6-0.5,1.1-0.9,1.3-1.5
						s0.3-1.3,0.3-2.2v-2.5c0-1.2,0-2,0-2.2s-0.1-0.5-0.3-0.7s-0.6-0.3-1.3-0.3h-0.3v-0.6H170.2z"/>
					<path class="st1" d="M178,19.2c0.3-0.8,0.8-1.5,1.5-2s1.4-0.8,2-0.8c0.6,0,1.1,0.2,1.4,0.6s0.5,0.8,0.5,1.1
						c0,0.3-0.1,0.5-0.3,0.7s-0.4,0.3-0.6,0.3c-0.5,0-0.8-0.3-1-1c-0.2-0.5-0.4-0.7-0.7-0.7c-0.4,0-0.9,0.3-1.4,0.8
						s-0.9,1.1-1.1,1.7s-0.2,1.4-0.2,2.4v2c0,1.2,0,1.9,0,2.3c0,0.3,0.2,0.5,0.4,0.7s0.6,0.2,1.2,0.2h0.4V28h-5.9v-0.6h0.3
						c0.5,0,0.9-0.1,1.2-0.2s0.4-0.4,0.4-0.6s0.1-1.1,0.1-2.4V21c0-1.2,0-2,0-2.3c0-0.3-0.2-0.5-0.4-0.7s-0.6-0.3-1.2-0.3h-0.3v-0.6
						c0.9-0.1,2-0.4,3.4-0.8C177.8,17.1,178,18,178,19.2z"/>
					<path class="st1" d="M195.1,20.6h-7.8c0,0.5-0.1,0.9-0.1,1.2c0,2,0.3,3.4,0.9,4.4s1.5,1.5,2.8,1.5c1.7,0,2.8-0.7,3.5-2.2h0.7
						c-0.3,0.9-0.9,1.7-1.7,2.2c-0.9,0.5-1.8,0.8-2.8,0.8c-0.9,0-1.8-0.2-2.7-0.7c-0.8-0.5-1.5-1.2-2.1-2c-0.5-0.9-0.8-1.9-0.8-3.2
						c0-1.8,0.5-3.2,1.6-4.4s2.3-1.8,3.9-1.8c1.5,0,2.6,0.4,3.4,1.3C194.7,18.6,195.1,19.6,195.1,20.6z M192.7,20c0-0.2,0-0.4,0-0.6
						c0-0.8-0.2-1.4-0.7-1.9c-0.5-0.4-1-0.7-1.7-0.7c-1.7,0-2.6,1-3,3.1H192.7z"/>
					<path class="st1" d="M205.6,22.4c0-1.7,0.6-3.1,1.7-4.3s2.6-1.7,4.2-1.7c1.7,0,3.1,0.6,4.3,1.7s1.7,2.6,1.7,4.3
						c0,1.9-0.6,3.4-1.8,4.5c-1.2,1.1-2.6,1.6-4.2,1.6c-1.7,0-3.1-0.5-4.2-1.6S205.6,24.2,205.6,22.4z M207.8,22.4
						c0,2,0.3,3.4,1,4.2c0.6,0.8,1.6,1.2,2.7,1.2c1.2,0,2.1-0.4,2.7-1.2c0.6-0.8,1-2.2,1-4.2c0-2-0.3-3.4-0.9-4.2s-1.5-1.3-2.7-1.3
						c-1.2,0-2.1,0.4-2.7,1.3C208.2,19.1,207.8,20.5,207.8,22.4z"/>
					<path class="st1" d="M226,16.8v0.6h-2.3v6.7c0,1.2,0,1.9,0,2.3c0,0.3,0.2,0.5,0.4,0.7c0.2,0.2,0.6,0.2,1.2,0.2h0.6V28h-6.1
						v-0.6c0.6,0,1.1-0.1,1.3-0.2c0.2-0.1,0.4-0.3,0.5-0.6c0.1-0.3,0.1-1.1,0.1-2.4v-6.7h-2.1v-0.6h2.1v-1c0-1.1,0-2,0.1-2.6
						c0.1-0.6,0.3-1.3,0.8-1.9s1-1.2,1.6-1.5s1.4-0.5,2.3-0.5c1.1,0,1.9,0.2,2.6,0.7c0.6,0.4,1,0.9,1,1.4c0,0.3-0.1,0.5-0.3,0.7
						c-0.2,0.2-0.4,0.3-0.6,0.3c-0.5,0-0.9-0.4-1.3-1.1c-0.4-0.8-1-1.2-1.7-1.2c-0.6,0-1.1,0.2-1.5,0.6c-0.4,0.4-0.7,0.9-0.8,1.6
						s-0.1,2-0.1,4v0.8H226z"/>
					<path class="st1" d="M245.6,19.3v3.9c0,1.5,0,2.4,0.1,2.9s0.3,0.8,0.6,1s0.9,0.3,1.7,0.3h0.6V28h-8.5v-0.6h0.5
						c0.8,0,1.3-0.1,1.6-0.3s0.5-0.5,0.6-0.9s0.1-1.4,0.1-3v-9.1c0-1.5,0-2.4-0.1-2.9s-0.3-0.7-0.5-0.9c-0.3-0.2-0.9-0.2-1.8-0.2
						h-0.3V9.5l2.3-0.1c1.9-0.1,3.3-0.1,4.3-0.1c1.9,0,3.4,0.2,4.4,0.5s1.9,0.8,2.5,1.6s1,1.7,1,2.9c0,1-0.2,1.9-0.7,2.7
						s-1.1,1.4-1.9,1.8s-2.3,0.6-4.5,0.6H245.6z M245.6,18.6h1.3c1.1,0,1.9-0.1,2.6-0.3s1.2-0.7,1.6-1.3s0.7-1.5,0.7-2.5
						c0-1.5-0.4-2.7-1.1-3.4s-2-1.1-3.7-1.1c-0.6,0-1.1,0-1.4,0.1V18.6z"/>
					<path class="st1" d="M267.1,25.9h0.5c-0.1,1.6-0.8,2.3-2.3,2.3c-0.6,0-1.1-0.2-1.5-0.5s-0.6-0.8-0.7-1.5
						c-0.9,0.6-1.7,1.1-2.5,1.5s-1.4,0.5-2,0.5c-0.8,0-1.4-0.2-2-0.7s-0.8-1-0.8-1.7c0-0.9,0.5-1.8,1.4-2.5s2.2-1.4,3.8-2.1l2.1-0.9
						V20c0-0.8-0.1-1.3-0.2-1.7c-0.1-0.3-0.4-0.7-0.8-0.9c-0.4-0.3-1-0.4-1.7-0.4c-1.4,0-2.1,0.5-2.3,1.4c-0.1,0.9-0.5,1.4-1.1,1.4
						c-0.6,0-0.8-0.3-0.8-0.8c0-0.5,0.4-1.1,1.1-1.7s1.9-0.9,3.4-0.9c1.2,0,2.1,0.2,2.7,0.5c0.6,0.4,1.1,0.8,1.3,1.2
						s0.3,1.2,0.3,2.1v4.5c0,1.1,0.1,1.7,0.2,2s0.3,0.5,0.7,0.5C266.6,27.3,267,26.8,267.1,25.9z M263.2,21.2l-1.5,0.6
						c-2.4,1-3.5,2.2-3.5,3.6c0,0.6,0.2,1,0.5,1.4s0.7,0.5,1.2,0.5c0.4,0,0.9-0.1,1.5-0.4c0.6-0.3,1.2-0.7,1.9-1.3V21.2z"/>
					<path class="st1" d="M272.9,9.2v15c0,1.2,0,1.9,0,2.3s0.2,0.5,0.4,0.7c0.2,0.2,0.6,0.2,1.2,0.2h0.3V28h-6v-0.6h0.4
						c0.5,0,0.9-0.1,1.2-0.2s0.4-0.4,0.4-0.6c0-0.3,0.1-1.1,0.1-2.4V13.1c0-1.2-0.1-1.9-0.3-2.2c-0.2-0.3-0.7-0.5-1.5-0.5V9.8
						c0.6,0,1.2-0.1,2-0.2s1.3-0.3,1.6-0.4H272.9z"/>
					<path class="st1" d="M277,22.4c0-1.7,0.6-3.1,1.7-4.3s2.6-1.7,4.2-1.7c1.7,0,3.1,0.6,4.3,1.7s1.7,2.6,1.7,4.3
						c0,1.9-0.6,3.4-1.8,4.5c-1.2,1.1-2.6,1.6-4.2,1.6c-1.6,0-3.1-0.5-4.2-1.6S277,24.2,277,22.4z M279.3,22.4c0,2,0.3,3.4,1,4.2
						c0.6,0.8,1.6,1.2,2.7,1.2c1.2,0,2.1-0.4,2.7-1.2c0.6-0.8,0.9-2.2,0.9-4.2c0-2-0.3-3.4-0.9-4.2S284.2,17,283,17
						c-1.2,0-2.1,0.4-2.7,1.3C279.6,19.1,279.3,20.5,279.3,22.4z"/>
					<path class="st1" d="M310.4,21.2h-7l-0.5,1.2c-0.7,1.7-1.1,2.8-1.1,3.3c0,0.6,0.2,1,0.6,1.3c0.4,0.3,0.9,0.4,1.5,0.4V28h-5.5
						v-0.6c0.8-0.1,1.4-0.4,1.8-0.9c0.4-0.5,0.9-1.4,1.4-2.9c0-0.1,0.3-0.7,0.7-1.6l5.4-12.9h0.5l6.2,14.7l0.8,1.9
						c0.2,0.4,0.4,0.8,0.8,1c0.3,0.3,0.8,0.4,1.5,0.5V28h-7.3v-0.6c0.9,0,1.5-0.1,1.8-0.2s0.5-0.4,0.5-0.8c0-0.2-0.2-0.8-0.6-1.8
						L310.4,21.2z M310.2,20.5l-3.3-7.9l-3.3,7.9H310.2z"/>
					<path class="st1" d="M322.3,9.2v15c0,1.2,0,1.9,0,2.3c0,0.3,0.2,0.5,0.4,0.7c0.2,0.2,0.6,0.2,1.2,0.2h0.3V28h-6v-0.6h0.4
						c0.5,0,0.9-0.1,1.2-0.2s0.4-0.4,0.4-0.6c0-0.3,0.1-1.1,0.1-2.4V13.1c0-1.2-0.1-1.9-0.3-2.2c-0.2-0.3-0.7-0.5-1.5-0.5V9.8
						c0.6,0,1.2-0.1,2-0.2s1.3-0.3,1.6-0.4H322.3z"/>
					<path class="st1" d="M333,17.4h-3.4v6.8c0,1,0,1.7,0.1,2.1s0.3,0.6,0.6,0.9c0.3,0.2,0.6,0.3,1,0.3c0.7,0,1.2-0.4,1.7-1.1
						l0.4,0.3c-0.3,0.6-0.7,1.1-1.3,1.4c-0.6,0.3-1.1,0.5-1.7,0.5c-0.7,0-1.2-0.2-1.7-0.6c-0.5-0.4-0.8-0.8-0.9-1.4
						s-0.2-1.4-0.2-2.7v-6.3h-1.6v-0.6c0.7,0,1.4-0.3,2-0.9s1-1.5,1.1-2.6h0.4v3.5h3.4V17.4z"/>
					<path class="st1" d="M335.2,22.4c0-1.7,0.6-3.1,1.7-4.3s2.6-1.7,4.2-1.7c1.7,0,3.1,0.6,4.3,1.7s1.7,2.6,1.7,4.3
						c0,1.9-0.6,3.4-1.8,4.5s-2.6,1.6-4.2,1.6s-3.1-0.5-4.2-1.6S335.2,24.2,335.2,22.4z M337.5,22.4c0,2,0.3,3.4,1,4.2
						s1.6,1.2,2.7,1.2c1.2,0,2.1-0.4,2.7-1.2c0.6-0.8,1-2.2,1-4.2c0-2-0.3-3.4-0.9-4.2s-1.5-1.3-2.7-1.3c-1.2,0-2.1,0.4-2.7,1.3
						C337.8,19.1,337.5,20.5,337.5,22.4z"/>
				</g>
				<g id="Group-3">
					<g id="Fill-1">
						<path class="st2" d="M34.7,18.6c-0.9,1.5-2.5,2.7-4.7,3.5c-1.4-1.8-3.2-3.2-5-3.9c0,0.2,0.1,0.4,0.1,0.6c0,0.2,0,0.4-0.1,0.6
							c1.4,0.7,2.8,1.7,3.9,3.1c-2.5,0.6-4.9,0.5-6.7-0.3c-0.1,0-0.2,0.1-0.3,0.1c-0.1,0.3-0.2,0.6-0.3,0.8c1.3,0.6,2.8,0.9,4.3,0.9
							c1.2,0,2.5-0.2,3.7-0.5c1.3,1.9,1.9,3.8,1.7,5.6c-0.2,1.7-1.1,3.2-2.6,4.3c-1.5,1.1-3.2,1.5-4.9,1.1C22,34,20.3,32.8,18.9,31
							c1.5-2.1,2.3-4.5,2.3-6.7c0-0.2,0-0.3,0-0.5c-0.3,0.5-0.7,0.8-1.1,1.1c-0.1,1.7-0.8,3.5-1.8,5.2c-1.1-1.7-1.7-3.6-1.8-5.3
							c-0.4-0.3-0.8-0.7-1.1-1.2c-0.2,2.3,0.5,5,2.2,7.4c-2.8,3.6-6.6,4.5-9.7,2.2c-1.5-1.1-2.4-2.6-2.6-4.3
							c-0.2-1.8,0.4-3.7,1.7-5.6c1.3,0.4,2.6,0.6,3.8,0.6c1.2,0,2.3-0.2,3.4-0.5c0.3-0.1,0.7-0.2,1-0.4c-0.1-0.2-0.2-0.5-0.3-0.8
							c-0.1,0-0.3-0.1-0.4-0.1c-0.2,0.1-0.4,0.2-0.6,0.2c-1.8,0.6-4,0.6-6.1,0c1.2-1.4,2.5-2.4,4-3.1c0-0.2,0-0.3,0-0.5
							c0-0.2,0-0.5,0.1-0.7c-1.9,0.8-3.8,2.1-5.2,4c-2.2-0.8-3.8-2-4.7-3.5c-0.9-1.5-1-3.2-0.4-5c0.6-1.8,1.7-3,3.3-3.8
							c0.9-0.4,1.8-0.6,2.9-0.6c0.9,0,1.9,0.2,3,0.5c0.1,2.5,0.8,4.9,2.1,6.7c0.3-0.2,0.6-0.5,0.9-0.6c-1.1-1.6-1.8-3.6-1.9-5.7
							c1.8,0.7,3.3,1.7,4.4,3c0.3-0.3,0.6-0.5,0.9-0.6c-1.3-1.5-3.2-2.8-5.3-3.5c0.1-2.3,0.7-4.2,2-5.5c1.2-1.3,2.8-2,4.6-2h0
							c1.9,0,3.5,0.8,4.6,2c1.2,1.3,1.9,3.2,1.9,5.5c-2.2,0.8-4,2-5.3,3.5c0.3,0.1,0.6,0.4,0.9,0.6c1.1-1.2,2.6-2.2,4.4-2.9
							c-0.1,2.1-0.8,4.1-1.9,5.6c0.3,0.2,0.6,0.4,0.9,0.6c1.3-1.8,2-4.1,2.1-6.6c1-0.3,2-0.4,2.9-0.4c1.1,0,2.1,0.2,3,0.6
							c1.6,0.7,2.7,2,3.3,3.8C35.7,15.4,35.6,17.1,34.7,18.6 M36.2,13.3c-0.7-2-2-3.6-3.9-4.4c-1.8-0.8-4-0.9-6.3-0.3
							c-0.1-2.4-0.9-4.5-2.2-6c-1.4-1.5-3.3-2.4-5.4-2.4h0c-2.1,0-4.1,0.9-5.4,2.4c-1.3,1.4-2.1,3.5-2.2,5.9C8.3,7.9,6.1,8,4.3,8.8
							c-1.9,0.8-3.3,2.4-3.9,4.4s-0.5,4.1,0.5,5.9c1,1.7,2.7,3.1,5,3.9c-1.3,2-1.9,4.1-1.7,6c0.2,2,1.3,3.8,3,5.1
							c1.3,0.9,2.8,1.5,4.4,1.5c2.2,0,4.6-1,6.7-3.6c1.5,1.9,3.3,3.1,5.3,3.5c0.5,0.1,1,0.1,1.4,0.1c1.5,0,3-0.5,4.4-1.4
							c1.7-1.2,2.8-3,3.1-5c0.2-2-0.4-4-1.7-6c2.3-0.8,4-2.2,5-3.9C36.7,17.4,36.9,15.4,36.2,13.3"/>
					</g>
					<g id="Fill-4">
						<path class="st2" d="M30.8,15.8c-0.5,0.2-1.1-0.1-1.2-0.6c-0.2-0.5,0.1-1.1,0.6-1.2c0.5-0.2,1.1,0.1,1.2,0.6
							C31.6,15.1,31.3,15.7,30.8,15.8 M17.3,6.3c0-0.5,0.4-1,1-1c0.5,0,1,0.4,1,1s-0.4,1-1,1C17.7,7.2,17.3,6.8,17.3,6.3 M25.4,28.4
							c0.4-0.3,1-0.2,1.4,0.2c0.3,0.4,0.2,1-0.2,1.4c-0.4,0.3-1,0.2-1.4-0.2C24.9,29.3,25,28.7,25.4,28.4 M11.7,29.8
							c-0.3,0.4-0.9,0.5-1.4,0.2c-0.4-0.3-0.5-0.9-0.2-1.4c0.3-0.4,0.9-0.5,1.4-0.2C11.9,28.8,12,29.4,11.7,29.8 M7.1,15.4
							c-0.2,0.5-0.7,0.8-1.2,0.6c-0.5-0.2-0.8-0.7-0.6-1.2C5.4,14.3,6,14,6.5,14.2C7,14.4,7.3,14.9,7.1,15.4 M32.5,14.3
							c-0.4-1.1-1.5-1.7-2.6-1.3c-0.9,0.3-1.5,1.2-1.4,2.1l-9.5,3.2l0-9.9c0.9-0.2,1.5-1,1.5-2c0-1.1-0.9-2.1-2.1-2.1
							c-1.1,0-2.1,0.9-2.1,2.1c0,1,0.7,1.7,1.5,2l0,10l-9.6-3c0-0.9-0.5-1.8-1.4-2c-1.1-0.4-2.3,0.2-2.6,1.3
							c-0.4,1.1,0.2,2.2,1.3,2.6c0.9,0.3,1.9-0.1,2.4-0.8l9.6,3l-5.8,8.1c-0.9-0.3-1.8,0-2.4,0.7C8.6,29,8.8,30.3,9.7,31
							c0.9,0.7,2.2,0.5,2.9-0.5c0.6-0.8,0.5-1.8-0.1-2.5l5.9-8.1l6,8c-0.6,0.7-0.6,1.7,0,2.5c0.7,0.9,2,1.1,2.9,0.4
							c0.9-0.7,1.1-2,0.4-2.9c-0.6-0.8-1.6-1-2.4-0.7l-6-8l9.5-3.2c0.5,0.7,1.5,1.1,2.4,0.8C32.2,16.5,32.8,15.3,32.5,14.3"/>
					</g>
				</g>
			</g>
		</g>
	</g>
</g>
</svg>
