<?xml version="1.0" encoding="UTF-8"?>
<svg width="262px" height="86px" viewBox="0 0 262 86" version="1.1" xmlns="http://www.w3.org/2000/svg" xmlns:xlink="http://www.w3.org/1999/xlink">
    <!-- Generator: Sketch 43.2 (39069) - http://www.bohemiancoding.com/sketch -->
    <title>aopa-logo-mobile</title>
    <desc>Created with Sketch.</desc>
    <defs></defs>
    <g id="Site" stroke="none" stroke-width="1" fill="none" fill-rule="evenodd">
        <g id="Mobile-Portrait" transform="translate(-29.000000, -60.000000)">
            <g id="aopa-logo-mobile" transform="translate(29.000000, 60.000000)">
                <text id="Acupuncture-of-Palo" font-family="Baskerville" font-size="24" font-weight="normal" letter-spacing="0.599999845" fill="#FFFFFF">
                    <tspan x="0" y="80">Acupuncture of Palo Alto</tspan>
                </text>
                <g id="Group-3" transform="translate(107.000000, 0.000000)" fill="#9ADA53">
                    <path d="M45.9313567,24.8492736 C44.7443866,26.9084444 42.6103269,28.5079138 39.7573567,29.5083118 C37.8617149,27.0580299 35.5075209,25.276869 33.0853119,24.262607 C33.1372373,24.5187264 33.1650284,24.7814129 33.1650284,25.0492073 C33.1650284,25.3126235 33.1372373,25.5716617 33.087506,25.823403 C34.9378045,26.7114295 36.739103,28.1168027 38.262491,29.9629055 C35.002894,30.78599 31.8288642,30.5758408 29.3547299,29.5535522 C29.2135806,29.598063 29.0702373,29.6381957 28.9239687,29.6732206 C28.828894,30.0643317 28.6987149,30.4357413 28.5436701,30.7881791 C30.2250284,31.5280796 32.1879537,31.930136 34.2854463,31.930136 C35.8709985,31.930136 37.5311478,31.6900697 39.1956851,31.2143151 C40.8989836,33.7061891 41.6690881,36.2571675 41.4021478,38.6169685 C41.1417896,40.9118275 39.9504313,42.8856252 37.9567896,44.3252935 C35.9624164,45.7649619 33.7113418,46.276471 31.444909,45.8043648 C29.1068045,45.317665 26.9120433,43.7816783 25.0690582,41.3737181 C26.9917597,38.5600531 28.0631776,35.3924909 28.0770731,32.3818109 C28.0778045,32.1505008 28.0624463,31.9272172 28.0492821,31.703204 C27.6463119,32.3139502 27.1460731,32.8254594 26.5770881,33.2005174 C26.4059537,35.5106998 25.5722224,37.9018773 24.1724313,40.0953101 C22.7155955,37.7880464 21.9235507,35.3217114 21.7904463,33.0494726 C21.2353567,32.6372007 20.7534015,32.0943151 20.3738343,31.4529221 C20.1390731,34.5818109 21.0934761,38.1514295 23.2692224,41.36934 C19.5693567,46.158262 14.5457597,47.3075158 10.3675955,44.2632703 C8.37980448,42.8148458 7.19795373,40.8359403 6.94856567,38.5396219 C6.69113284,36.1696053 7.47805821,33.6127894 9.20622239,31.1194561 C10.8861179,31.6098043 12.5835657,31.8703018 14.2283567,31.8703018 C15.7919687,31.8703018 17.3051179,31.6477479 18.7056403,31.2019104 C19.1598045,31.0574328 19.5817896,30.8801194 19.9928045,30.6918607 C19.8560433,30.3678806 19.740491,30.0285771 19.6541925,29.6732206 C19.4611179,29.6265207 19.2731627,29.5696053 19.0888642,29.5075821 C18.8219239,29.6177645 18.5476701,29.7206501 18.2609836,29.8118607 C15.8168343,30.5911642 12.9711776,30.6064876 10.1467299,29.8753433 C11.6781627,28.0401857 13.5167597,26.6136517 15.4745657,25.7205174 C15.4372672,25.5008823 15.4131328,25.2775987 15.4131328,25.0492073 C15.4131328,24.7274163 15.4562821,24.4151111 15.5301478,24.1115622 C12.9587448,25.128743 10.5592075,26.9770348 8.65332687,29.4112637 C5.79304328,28.3918939 3.65971493,26.7741824 2.48298358,24.6996882 C1.34355075,22.6894063 1.14608806,20.3938176 1.91399851,18.0610149 C2.68117761,15.7274826 4.20310299,13.9952106 6.31522239,13.049539 C7.4678194,12.5336517 8.7586403,12.276073 10.1503866,12.276073 C11.3900134,12.276073 12.7130134,12.4920597 14.0835507,12.9021426 C14.1793567,16.2718275 15.157894,19.43866 16.8809388,21.8750779 C17.2283269,21.5525572 17.6276403,21.2701692 18.0671776,21.0322919 C16.604491,18.9585274 15.7312672,16.2871509 15.5615955,13.410733 C17.8850731,14.3388922 19.8896851,15.7179967 21.3655358,17.3991907 C21.7341328,17.0555091 22.1458791,16.7789585 22.5868791,16.5753765 C20.8316552,14.5256915 18.3787299,12.8824411 15.5447746,11.8513964 C15.6383866,8.83487894 16.5218493,6.20436484 18.1322672,4.45239138 C19.689297,2.7587927 21.8043418,1.77517745 24.2506851,1.77517745 L24.2857896,1.77517745 C26.747491,1.77517745 28.8683866,2.78652073 30.4210284,4.49909121 C32.0219388,6.26565837 32.8893119,8.8224743 32.9587896,11.8448292 C30.0692522,12.8744146 27.6667896,14.5680133 25.956909,16.5250282 C26.3913269,16.7205837 26.796491,17.0058905 27.1621627,17.3371675 C28.5985209,15.7493731 30.5753418,14.3863217 32.9302672,13.4632703 C32.7408493,16.2988259 31.866894,18.9337181 30.4232224,20.9826733 C30.8700731,21.2154428 31.2781627,21.4956418 31.6328642,21.8145141 C33.3244612,19.4021758 34.2978791,16.2907993 34.4127,12.970733 C35.7576403,12.5781625 37.0543119,12.3723914 38.2719985,12.3723914 C39.6929985,12.3723914 41.0094164,12.6394561 42.1788343,13.1728557 C44.2843716,14.1323914 45.7945955,15.8756086 46.5464164,18.2142488 C47.297506,20.5528889 47.0846851,22.8470182 45.9313567,24.8492736 M47.938894,17.769141 C47.0715209,15.0678474 45.2417,12.9641658 42.7865806,11.8455589 C40.3936254,10.7539502 37.5092075,10.6320929 34.4053866,11.4595556 C34.2539985,8.27156219 33.2666851,5.45862687 31.5056104,3.51620564 C29.6962672,1.51978773 27.1336403,0.315807629 24.290909,0.315807629 L24.2521478,0.315807629 C21.4247746,0.315807629 18.8694612,1.49570813 17.0542672,3.47096517 C15.277103,5.4039005 14.2707746,8.13146269 14.1003716,11.3216451 C11.0038642,10.4730216 8.11871493,10.6094726 5.71698358,11.6835688 C3.25455075,12.7861227 1.41083433,14.8941824 0.524446269,17.5889088 C-0.361941791,20.2836352 -0.118404478,23.0666534 1.21044627,25.4096716 C2.50565522,27.6950448 4.76843134,29.4871509 7.76767015,30.6349453 C6.00293881,33.3128889 5.21089403,36.0842322 5.49392388,38.6950448 C5.78499851,41.371529 7.20892388,43.7678143 9.50461045,45.4409818 C11.1640284,46.64934 13.1839985,47.3782952 15.3217149,47.3782952 C18.2609836,47.3782952 21.4233119,45.9999204 24.1731627,42.598859 C26.1799687,45.0943814 28.5729239,46.6967695 31.1457896,47.2330879 C31.7776701,47.3644312 32.4154015,47.4293731 33.0494761,47.4293731 C35.0672522,47.4293731 37.0616254,46.771927 38.8139239,45.5073831 C41.1169239,43.8451609 42.5525507,41.4561725 42.8553269,38.7811476 C43.1500582,36.1805506 42.3770284,33.4179635 40.6371627,30.7414793 C43.6283567,29.6133864 45.8918642,27.8453599 47.1987746,25.5767695 C48.5437149,23.2425075 48.8069985,20.4697048 47.938894,17.769141" id="Fill-1"></path>
                    <path d="M40.7949134,21.0943881 C40.1169582,21.3176716 39.3834209,20.9499104 39.1588985,20.2727629 C38.9351075,19.5970746 39.3051672,18.8652007 39.982391,18.6419171 C40.6603463,18.4186335 41.3938836,18.7863947 41.6176746,19.4628126 C41.842197,20.1392305 41.4728687,20.8711045 40.7949134,21.0943881 M22.926003,8.35773798 C22.926003,7.64556551 23.5066896,7.06619569 24.2204806,7.06619569 C24.9342716,7.06619569 25.5149582,7.64556551 25.5149582,8.35773798 C25.5149582,9.06991045 24.9342716,9.65000995 24.2204806,9.65000995 C23.5066896,9.65000995 22.926003,9.06991045 22.926003,8.35773798 M33.6584657,37.8158474 C34.2340328,37.3955489 35.0458239,37.5210547 35.467809,38.0953167 C35.8890627,38.6703085 35.764003,39.479529 35.1884358,39.9005572 C34.6121373,40.3215854 33.8003463,40.1960796 33.3790925,39.6218176 C32.9571075,39.0468259 33.0821672,38.2368756 33.6584657,37.8158474 M15.5262716,39.7984013 C15.1086746,40.3755821 14.2976149,40.505466 13.7191224,40.0888159 C13.1406299,39.6714362 13.0104507,38.8622156 13.4280478,38.2850348 C13.8463761,37.7078541 14.6574358,37.5772405 15.2359284,37.9946202 C15.8144209,38.412 15.9446,39.2212206 15.5262716,39.7984013 M9.39468955,20.5617181 C9.17528657,21.2388657 8.44321194,21.6117347 7.76452537,21.3928292 C7.08510746,21.173194 6.71139104,20.4435091 6.93079403,19.7663615 C7.15092836,19.0884842 7.88227164,18.7156153 8.56095821,18.9352504 C9.24037612,19.1541559 9.61482388,19.8838408 9.39468955,20.5617181 M43.0064955,19.0045705 C42.5296597,17.5649022 40.9675104,16.7804909 39.5238388,17.2562454 C38.3185851,17.653194 37.5828537,18.8068259 37.6464806,20.0144544 L25.0161821,24.2342222 L24.9620627,10.9955489 C26.1212418,10.6693798 26.9776448,9.61717413 26.9776448,8.35773798 C26.9776448,6.84145274 25.7409433,5.60682587 24.2204806,5.60682587 C22.7007493,5.60682587 21.4633164,6.84145274 21.4633164,8.35773798 C21.4633164,9.62447098 22.3306896,10.6832438 23.4993761,11.0021161 L23.5534955,24.2984345 L10.9056448,20.2713035 C10.9524507,19.0709718 10.2123313,17.9341227 9.01146567,17.54666 C7.56486866,17.0796617 6.00710746,17.8735589 5.53904776,19.3176053 C5.0717194,20.7601924 5.8674209,22.3144212 7.31401791,22.7814196 C8.52219701,23.1710713 9.79839104,22.6741559 10.4617194,21.6620829 L23.1578388,25.7038076 L15.4246149,36.4703085 C14.2946896,36.0573068 12.9819284,36.4097446 12.2425403,37.4298441 C11.3524955,38.6593632 11.630406,40.3828789 12.8627194,41.2716352 C14.0943015,42.1596617 15.8217343,41.8823814 16.7117791,40.6528624 C17.4555552,39.6261957 17.3743761,38.2616849 16.6137791,37.3203914 L24.3769881,26.5122985 L32.2630627,37.1678872 C31.5214806,38.1135589 31.4534657,39.4678541 32.1987045,40.4835755 C33.096794,41.707257 34.8256896,41.9743217 36.0521522,41.077539 C37.2786149,40.1822156 37.5455552,38.4572405 36.6474657,37.2335589 C35.8978388,36.2112703 34.5719134,35.8683184 33.439794,36.3002919 L25.523003,25.6045705 L38.1116149,21.397937 C38.7851821,22.3939569 40.0555254,22.8748192 41.2534657,22.4800597 C42.6971373,22.0043051 43.4840627,20.4449685 43.0064955,19.0045705" id="Fill-4"></path>
                </g>
            </g>
        </g>
    </g>
</svg>