<?xml version="1.0" encoding="utf-8"?>
<!-- Generator: Adobe Illustrator 21.1.0, SVG Export Plug-In . SVG Version: 6.00 Build 0)  -->
<svg version="1.1" id="Layer_1" xmlns="http://www.w3.org/2000/svg" xmlns:xlink="http://www.w3.org/1999/xlink" x="0px" y="0px"
	 viewBox="0 0 262 86" style="enable-background:new 0 0 262 86;" xml:space="preserve">
<style type="text/css">
	.st0{enable-background:new    ;}
	.st1{fill:#FFFFFF;}
	.st2{fill:#9ADA53;}
</style>
<title>aopa-logo-mobile</title>
<desc>Created with Sketch.</desc>
<g id="Site">
	<g id="Mobile-Portrait" transform="translate(-29.000000, -60.000000)">
		<g id="aopa-logo-mobile" transform="translate(29.000000, 60.000000)">
			<g class="st0">
				<path class="st1" d="M10.4,74.1h-6l-0.4,1C3.3,76.6,3,77.6,3,78c0,0.5,0.2,0.8,0.5,1.1s0.7,0.4,1.2,0.4V80H0v-0.5
					c0.7-0.1,1.2-0.4,1.6-0.7s0.8-1.2,1.2-2.4c0-0.1,0.2-0.6,0.6-1.4l4.6-11h0.5l5.3,12.6l0.7,1.7c0.2,0.4,0.4,0.7,0.7,0.9
					s0.7,0.3,1.2,0.4V80h-6.2v-0.5c0.8,0,1.3-0.1,1.6-0.2s0.4-0.3,0.4-0.7c0-0.2-0.2-0.7-0.5-1.5L10.4,74.1z M10.2,73.6l-2.8-6.8
					l-2.8,6.8H10.2z"/>
				<path class="st1" d="M26,77.7h0.5c-0.5,1.8-1.9,2.7-4,2.7c-1.4,0-2.5-0.5-3.5-1.4s-1.4-2.2-1.4-3.7c0-1.6,0.5-2.8,1.5-3.8
					s2.2-1.5,3.6-1.5c0.8,0,1.6,0.2,2.3,0.5s1,0.8,1,1.3c0,0.2-0.1,0.4-0.2,0.6s-0.3,0.3-0.6,0.3c-0.5,0-0.8-0.3-0.9-0.9
					c-0.1-0.5-0.2-0.8-0.4-0.9c-0.2-0.2-0.6-0.3-1.2-0.3c-1,0-1.8,0.4-2.4,1.1s-0.8,1.8-0.8,3.3c0,1.5,0.3,2.7,0.8,3.5
					s1.4,1.3,2.6,1.3C24.6,79.8,25.6,79.1,26,77.7z"/>
				<path class="st1" d="M38.1,70.4v6.3c0,1,0,1.7,0,2s0.1,0.5,0.3,0.6s0.6,0.2,1.1,0.2V80c-1.2,0-2.1,0.1-2.6,0.4h-0.1
					c-0.2-0.4-0.4-1.2-0.4-2.2c-0.5,0.7-1,1.3-1.6,1.7s-1.3,0.6-2,0.6c-0.6,0-1.2-0.1-1.7-0.4s-0.8-0.7-1-1.1s-0.3-1.1-0.3-1.9v-3.3
					c0-1.1,0-1.8-0.1-2s-0.2-0.4-0.4-0.5s-0.6-0.2-1.1-0.2v-0.5h3.3v6.7c0,0.7,0,1.1,0.1,1.4s0.3,0.6,0.6,0.8s0.7,0.3,1.1,0.3
					c0.6,0,1.2-0.2,1.7-0.6s0.9-0.8,1.1-1.3s0.3-1.1,0.3-1.9v-2.2c0-1,0-1.7,0-1.9s-0.1-0.4-0.3-0.6s-0.5-0.3-1.1-0.3h-0.2v-0.5
					H38.1z"/>
				<path class="st1" d="M43.7,70H44c0.1,0.4,0.2,1,0.2,1.6c0.5-0.5,1-0.9,1.6-1.2S47,70,47.7,70c1.3,0,2.4,0.5,3.3,1.4
					s1.3,2.2,1.3,3.7c0,1.5-0.4,2.8-1.3,3.8s-2.1,1.5-3.5,1.5c-0.6,0-1.2-0.1-1.7-0.4s-1.1-0.6-1.5-1.1v3.6c0,1.1,0,1.8,0.1,2
					s0.2,0.4,0.4,0.5s0.6,0.2,1.1,0.2v0.5h-5v-0.5h0.4c0.6,0,0.9-0.1,1.1-0.2s0.3-0.4,0.3-0.6s0-0.9,0-1.9v-8.7c0-1,0-1.7,0-1.9
					s-0.1-0.5-0.3-0.6s-0.5-0.2-1-0.2h-0.4v-0.5C41.5,70.5,42.5,70.3,43.7,70z M44.2,78.2c0.4,0.5,0.9,0.9,1.3,1.2s1,0.4,1.5,0.4
					c0.9,0,1.7-0.4,2.3-1.1s1-2,1-3.6c0-1.4-0.3-2.5-0.9-3.2s-1.4-1.1-2.3-1.1c-0.5,0-1.1,0.1-1.5,0.4s-0.9,0.7-1.4,1.2V78.2z"/>
				<path class="st1" d="M64.2,70.4v6.3c0,1,0,1.7,0,2s0.1,0.5,0.3,0.6s0.6,0.2,1.1,0.2V80c-1.2,0-2.1,0.1-2.6,0.4H63
					c-0.2-0.4-0.4-1.2-0.4-2.2c-0.5,0.7-1,1.3-1.6,1.7s-1.3,0.6-2,0.6c-0.6,0-1.2-0.1-1.7-0.4s-0.8-0.7-1-1.1s-0.3-1.1-0.3-1.9v-3.3
					c0-1.1,0-1.8-0.1-2s-0.2-0.4-0.4-0.5s-0.6-0.2-1.1-0.2v-0.5h3.3v6.7c0,0.7,0,1.1,0.1,1.4s0.3,0.6,0.6,0.8s0.7,0.3,1.1,0.3
					c0.6,0,1.2-0.2,1.7-0.6s0.9-0.8,1.1-1.3s0.3-1.1,0.3-1.9v-2.2c0-1,0-1.7,0-1.9s-0.1-0.4-0.3-0.6s-0.5-0.3-1.1-0.3h-0.2v-0.5
					H64.2z"/>
				<path class="st1" d="M70.2,70h0.3c0.2,0.5,0.3,1.1,0.3,2c0.6-0.7,1.2-1.2,1.8-1.5s1.3-0.5,1.9-0.5c0.8,0,1.4,0.2,1.9,0.5
					s0.8,0.7,0.9,1.2s0.2,1.1,0.2,2v3c0,1.1,0,1.8,0.1,2s0.2,0.4,0.4,0.5s0.6,0.2,1.1,0.2V80h-4.9v-0.5h0.2c0.6,0,0.9-0.1,1.1-0.2
					s0.3-0.4,0.3-0.6s0-0.9,0-1.9v-3.1c0-0.8,0-1.3-0.1-1.6s-0.3-0.6-0.6-0.9s-0.7-0.4-1.2-0.4c-0.6,0-1.1,0.2-1.6,0.5
					s-1,0.8-1.5,1.5v3.9c0,1.1,0,1.8,0.1,2s0.2,0.4,0.4,0.5s0.6,0.2,1.2,0.2V80h-4.9v-0.5c0.5,0,0.9-0.1,1.1-0.2s0.3-0.3,0.4-0.5
					s0.1-0.9,0.1-2.1v-2.9c0-1.1,0-1.8-0.1-2s-0.2-0.4-0.4-0.5s-0.6-0.2-1.2-0.2v-0.5C68.4,70.5,69.3,70.3,70.2,70z"/>
				<path class="st1" d="M89.4,77.7h0.5c-0.5,1.8-1.9,2.7-4,2.7c-1.4,0-2.5-0.5-3.5-1.4s-1.4-2.2-1.4-3.7c0-1.6,0.5-2.8,1.5-3.8
					s2.2-1.5,3.6-1.5c0.8,0,1.6,0.2,2.3,0.5s1,0.8,1,1.3c0,0.2-0.1,0.4-0.2,0.6s-0.3,0.3-0.6,0.3c-0.5,0-0.8-0.3-0.9-0.9
					c-0.1-0.5-0.2-0.8-0.4-0.9c-0.2-0.2-0.6-0.3-1.2-0.3c-1,0-1.8,0.4-2.4,1.1S83,73.5,83,74.9c0,1.5,0.3,2.7,0.8,3.5
					s1.4,1.3,2.6,1.3C88,79.8,89,79.1,89.4,77.7z"/>
				<path class="st1" d="M97.6,70.9h-2.9v5.8c0,0.9,0,1.5,0.1,1.8s0.2,0.6,0.5,0.7s0.5,0.3,0.8,0.3c0.6,0,1.1-0.3,1.5-1l0.4,0.2
					c-0.2,0.5-0.6,0.9-1.1,1.2s-1,0.4-1.4,0.4c-0.6,0-1.1-0.2-1.5-0.5s-0.7-0.7-0.8-1.2s-0.2-1.2-0.2-2.3v-5.4h-1.4v-0.5
					c0.6,0,1.2-0.3,1.7-0.8s0.8-1.3,1-2.2h0.4v3h2.9V70.9z"/>
				<path class="st1" d="M109.1,70.4v6.3c0,1,0,1.7,0,2s0.1,0.5,0.3,0.6s0.6,0.2,1.1,0.2V80c-1.2,0-2.1,0.1-2.6,0.4h-0.1
					c-0.2-0.4-0.4-1.2-0.4-2.2c-0.5,0.7-1,1.3-1.6,1.7s-1.3,0.6-2,0.6c-0.6,0-1.2-0.1-1.7-0.4s-0.8-0.7-1-1.1s-0.3-1.1-0.3-1.9v-3.3
					c0-1.1,0-1.8-0.1-2s-0.2-0.4-0.4-0.5s-0.6-0.2-1.1-0.2v-0.5h3.3v6.7c0,0.7,0,1.1,0.1,1.4s0.3,0.6,0.6,0.8s0.7,0.3,1.1,0.3
					c0.6,0,1.2-0.2,1.7-0.6s0.9-0.8,1.1-1.3s0.3-1.1,0.3-1.9v-2.2c0-1,0-1.7,0-1.9s-0.1-0.4-0.3-0.6s-0.5-0.3-1.1-0.3h-0.2v-0.5
					H109.1z"/>
				<path class="st1" d="M115.7,72.5c0.3-0.7,0.7-1.3,1.3-1.7s1.2-0.7,1.8-0.7c0.5,0,0.9,0.2,1.2,0.5s0.4,0.6,0.4,1
					c0,0.2-0.1,0.4-0.2,0.6s-0.3,0.2-0.6,0.2c-0.4,0-0.7-0.3-0.9-0.9c-0.1-0.4-0.4-0.6-0.6-0.6c-0.3,0-0.7,0.2-1.2,0.7
					s-0.8,0.9-0.9,1.4s-0.2,1.2-0.2,2v1.7c0,1,0,1.7,0,1.9s0.1,0.5,0.3,0.6s0.5,0.2,1,0.2h0.3V80h-5.1v-0.5h0.2c0.5,0,0.8-0.1,1-0.2
					s0.3-0.3,0.4-0.5s0.1-0.9,0.1-2V74c0-1,0-1.7,0-1.9s-0.1-0.5-0.3-0.6s-0.5-0.2-1-0.2h-0.2v-0.5c0.7-0.1,1.7-0.3,2.9-0.7
					C115.6,70.6,115.7,71.4,115.7,72.5z"/>
				<path class="st1" d="M130.4,73.6h-6.7c0,0.5,0,0.8,0,1c0,1.7,0.3,3,0.8,3.8s1.3,1.3,2.4,1.3c1.4,0,2.4-0.6,3-1.9h0.6
					c-0.2,0.8-0.7,1.4-1.5,1.9s-1.6,0.7-2.4,0.7c-0.8,0-1.6-0.2-2.3-0.6s-1.3-1-1.8-1.7s-0.7-1.7-0.7-2.7c0-1.5,0.4-2.8,1.3-3.8
					s2-1.5,3.3-1.5c1.3,0,2.2,0.4,2.9,1.1S130.3,72.8,130.4,73.6z M128.3,73.2c0-0.2,0-0.3,0-0.5c0-0.7-0.2-1.2-0.6-1.6
					s-0.9-0.6-1.5-0.6c-1.4,0-2.3,0.9-2.5,2.6H128.3z"/>
				<path class="st1" d="M139.3,75.2c0-1.5,0.5-2.7,1.5-3.7s2.2-1.5,3.6-1.5c1.4,0,2.7,0.5,3.6,1.5s1.5,2.2,1.5,3.7
					c0,1.6-0.5,2.9-1.5,3.8s-2.2,1.4-3.6,1.4s-2.6-0.5-3.6-1.4S139.3,76.8,139.3,75.2z M141.3,75.2c0,1.7,0.3,2.9,0.8,3.6
					s1.3,1,2.3,1c1,0,1.8-0.3,2.3-1s0.8-1.9,0.8-3.6c0-1.7-0.3-2.9-0.8-3.6s-1.3-1.1-2.4-1.1c-1,0-1.8,0.4-2.3,1.1
					S141.3,73.5,141.3,75.2z"/>
				<path class="st1" d="M156.9,70.4v0.5h-2v5.8c0,1,0,1.7,0,1.9s0.1,0.5,0.3,0.6s0.5,0.2,1,0.2h0.5V80h-5.2v-0.5
					c0.5,0,0.9-0.1,1.1-0.2s0.3-0.3,0.4-0.5s0.1-0.9,0.1-2.1v-5.8h-1.8v-0.5h1.8v-0.9c0-1,0-1.7,0.1-2.2s0.3-1.1,0.7-1.6
					s0.8-1,1.4-1.3s1.2-0.5,2-0.5c0.9,0,1.7,0.2,2.2,0.6s0.8,0.8,0.8,1.2c0,0.2-0.1,0.4-0.2,0.6s-0.3,0.2-0.6,0.2
					c-0.4,0-0.8-0.3-1.1-1c-0.4-0.7-0.9-1.1-1.5-1.1c-0.5,0-0.9,0.2-1.3,0.5s-0.6,0.8-0.7,1.3s-0.1,1.7-0.1,3.4v0.7H156.9z"/>
				<path class="st1" d="M173.7,72.5v3.3c0,1.2,0,2.1,0.1,2.5s0.2,0.7,0.5,0.9s0.7,0.3,1.5,0.3h0.5V80h-7.3v-0.5h0.4
					c0.7,0,1.2-0.1,1.4-0.3s0.4-0.4,0.5-0.8s0.1-1.2,0.1-2.5v-7.8c0-1.3,0-2.1-0.1-2.4s-0.2-0.6-0.5-0.8s-0.8-0.2-1.6-0.2h-0.3v-0.5
					l2-0.1c1.6-0.1,2.8-0.1,3.7-0.1c1.6,0,2.9,0.1,3.8,0.4s1.6,0.7,2.2,1.4s0.8,1.5,0.8,2.5c0,0.9-0.2,1.6-0.6,2.3s-0.9,1.2-1.7,1.5
					s-2,0.5-3.8,0.5H173.7z M173.7,71.9h1.1c0.9,0,1.7-0.1,2.2-0.3s1-0.6,1.4-1.2s0.6-1.3,0.6-2.2c0-1.3-0.3-2.3-1-2.9
					s-1.7-0.9-3.1-0.9c-0.5,0-0.9,0-1.2,0V71.9z"/>
				<path class="st1" d="M192.1,78.2h0.4c-0.1,1.3-0.7,2-2,2c-0.5,0-1-0.1-1.3-0.4s-0.5-0.7-0.6-1.3c-0.8,0.6-1.5,1-2.1,1.3
					s-1.2,0.4-1.7,0.4c-0.6,0-1.2-0.2-1.7-0.6s-0.7-0.9-0.7-1.5c0-0.8,0.4-1.5,1.2-2.1s1.9-1.2,3.3-1.8l1.8-0.7v-0.5
					c0-0.7,0-1.1-0.1-1.4s-0.3-0.6-0.7-0.8s-0.8-0.4-1.4-0.4c-1.2,0-1.8,0.4-2,1.2c-0.1,0.8-0.5,1.2-1,1.2c-0.5,0-0.7-0.2-0.7-0.7
					c0-0.4,0.3-0.9,0.9-1.4s1.6-0.8,3-0.8c1,0,1.8,0.2,2.3,0.5s0.9,0.7,1.1,1.1s0.3,1,0.3,1.8v3.9c0,0.9,0,1.5,0.1,1.7
					s0.3,0.4,0.6,0.4C191.7,79.4,192,79,192.1,78.2z M188.7,74.1l-1.3,0.5c-2,0.8-3,1.9-3,3.1c0,0.5,0.1,0.9,0.4,1.2s0.6,0.5,1,0.5
					c0.4,0,0.8-0.1,1.3-0.4s1-0.6,1.6-1.1V74.1z"/>
				<path class="st1" d="M197.1,63.9v12.8c0,1,0,1.7,0,1.9s0.1,0.5,0.3,0.6s0.5,0.2,1,0.2h0.3V80h-5.1v-0.5h0.3c0.5,0,0.8-0.1,1-0.2
					s0.3-0.3,0.4-0.5s0.1-0.9,0.1-2v-9.5c0-1-0.1-1.6-0.3-1.9s-0.6-0.4-1.3-0.4v-0.5c0.5,0,1-0.1,1.7-0.2s1.1-0.2,1.3-0.3H197.1z"/>
				<path class="st1" d="M200.6,75.2c0-1.5,0.5-2.7,1.5-3.7s2.2-1.5,3.6-1.5c1.4,0,2.7,0.5,3.6,1.5s1.5,2.2,1.5,3.7
					c0,1.6-0.5,2.9-1.5,3.8s-2.2,1.4-3.6,1.4s-2.6-0.5-3.6-1.4S200.6,76.8,200.6,75.2z M202.5,75.2c0,1.7,0.3,2.9,0.8,3.6
					s1.3,1,2.3,1c1,0,1.8-0.3,2.3-1s0.8-1.9,0.8-3.6c0-1.7-0.3-2.9-0.8-3.6s-1.3-1.1-2.4-1.1c-1,0-1.8,0.4-2.3,1.1
					S202.5,73.5,202.5,75.2z"/>
				<path class="st1" d="M229.2,74.1h-6l-0.4,1c-0.6,1.5-0.9,2.4-0.9,2.9c0,0.5,0.2,0.8,0.5,1.1s0.7,0.4,1.2,0.4V80h-4.7v-0.5
					c0.7-0.1,1.2-0.4,1.6-0.7s0.8-1.2,1.2-2.4c0-0.1,0.2-0.6,0.6-1.4l4.6-11h0.5l5.3,12.6l0.7,1.7c0.2,0.4,0.4,0.7,0.7,0.9
					s0.7,0.3,1.2,0.4V80H229v-0.5c0.8,0,1.3-0.1,1.6-0.2s0.4-0.3,0.4-0.7c0-0.2-0.2-0.7-0.5-1.5L229.2,74.1z M229,73.6l-2.8-6.8
					l-2.8,6.8H229z"/>
				<path class="st1" d="M239.4,63.9v12.8c0,1,0,1.7,0,1.9s0.1,0.5,0.3,0.6s0.5,0.2,1,0.2h0.3V80h-5.1v-0.5h0.3c0.5,0,0.8-0.1,1-0.2
					s0.3-0.3,0.4-0.5s0.1-0.9,0.1-2v-9.5c0-1-0.1-1.6-0.3-1.9s-0.6-0.4-1.3-0.4v-0.5c0.5,0,1-0.1,1.7-0.2s1.1-0.2,1.3-0.3H239.4z"/>
				<path class="st1" d="M248.6,70.9h-2.9v5.8c0,0.9,0,1.5,0.1,1.8s0.2,0.6,0.5,0.7s0.5,0.3,0.8,0.3c0.6,0,1.1-0.3,1.5-1l0.4,0.2
					c-0.2,0.5-0.6,0.9-1.1,1.2s-1,0.4-1.4,0.4c-0.6,0-1.1-0.2-1.5-0.5s-0.7-0.7-0.8-1.2s-0.2-1.2-0.2-2.3v-5.4h-1.4v-0.5
					c0.6,0,1.2-0.3,1.7-0.8s0.8-1.3,1-2.2h0.4v3h2.9V70.9z"/>
				<path class="st1" d="M250.5,75.2c0-1.5,0.5-2.7,1.5-3.7s2.2-1.5,3.6-1.5c1.4,0,2.7,0.5,3.6,1.5s1.5,2.2,1.5,3.7
					c0,1.6-0.5,2.9-1.5,3.8s-2.2,1.4-3.6,1.4S253,79.9,252,79S250.5,76.8,250.5,75.2z M252.4,75.2c0,1.7,0.3,2.9,0.8,3.6
					s1.3,1,2.3,1c1,0,1.8-0.3,2.3-1s0.8-1.9,0.8-3.6c0-1.7-0.3-2.9-0.8-3.6s-1.3-1.1-2.4-1.1c-1,0-1.8,0.4-2.3,1.1
					S252.4,73.5,252.4,75.2z"/>
			</g>
			<g id="Group-3" transform="translate(107.000000, 0.000000)">
				<g id="Fill-1">
					<path class="st2" d="M45.9,24.8c-1.2,2.1-3.3,3.7-6.2,4.7c-1.9-2.5-4.2-4.2-6.7-5.2c0.1,0.3,0.1,0.5,0.1,0.8
						c0,0.3,0,0.5-0.1,0.8c1.9,0.9,3.7,2.3,5.2,4.1c-3.3,0.8-6.4,0.6-8.9-0.4c-0.1,0-0.3,0.1-0.4,0.1c-0.1,0.4-0.2,0.8-0.4,1.1
						c1.7,0.7,3.6,1.1,5.7,1.1c1.6,0,3.2-0.2,4.9-0.7c1.7,2.5,2.5,5,2.2,7.4c-0.3,2.3-1.5,4.3-3.4,5.7c-2,1.4-4.2,2-6.5,1.5
						c-2.3-0.5-4.5-2-6.4-4.4c1.9-2.8,3-6,3-9c0-0.2,0-0.5,0-0.7c-0.4,0.6-0.9,1.1-1.5,1.5c-0.2,2.3-1,4.7-2.4,6.9
						c-1.5-2.3-2.2-4.8-2.4-7c-0.6-0.4-1-1-1.4-1.6c-0.2,3.1,0.7,6.7,2.9,9.9c-3.7,4.8-8.7,5.9-12.9,2.9c-2-1.4-3.2-3.4-3.4-5.7
						c-0.3-2.4,0.5-4.9,2.3-7.4c1.7,0.5,3.4,0.8,5,0.8c1.6,0,3.1-0.2,4.5-0.7c0.5-0.1,0.9-0.3,1.3-0.5c-0.1-0.3-0.3-0.7-0.3-1
						c-0.2,0-0.4-0.1-0.6-0.2c-0.3,0.1-0.5,0.2-0.8,0.3c-2.4,0.8-5.3,0.8-8.1,0.1c1.5-1.8,3.4-3.3,5.3-4.2c0-0.2-0.1-0.4-0.1-0.7
						c0-0.3,0-0.6,0.1-0.9c-2.6,1-5,2.9-6.9,5.3c-2.9-1-5-2.6-6.2-4.7c-1.1-2-1.3-4.3-0.6-6.6c0.8-2.3,2.3-4.1,4.4-5
						c1.2-0.5,2.4-0.8,3.8-0.8c1.2,0,2.6,0.2,3.9,0.6c0.1,3.4,1.1,6.5,2.8,9c0.3-0.3,0.7-0.6,1.2-0.8c-1.5-2.1-2.3-4.7-2.5-7.6
						c2.3,0.9,4.3,2.3,5.8,4c0.4-0.3,0.8-0.6,1.2-0.8c-1.8-2-4.2-3.7-7-4.7c0.1-3,1-5.6,2.6-7.4c1.6-1.7,3.7-2.7,6.1-2.7h0
						c2.5,0,4.6,1,6.1,2.7c1.6,1.8,2.5,4.3,2.5,7.3c-2.9,1-5.3,2.7-7,4.7c0.4,0.2,0.8,0.5,1.2,0.8c1.4-1.6,3.4-3,5.8-3.9
						c-0.2,2.8-1.1,5.5-2.5,7.5c0.4,0.2,0.9,0.5,1.2,0.8c1.7-2.4,2.7-5.5,2.8-8.8c1.3-0.4,2.6-0.6,3.9-0.6c1.4,0,2.7,0.3,3.9,0.8
						c2.1,1,3.6,2.7,4.4,5C47.3,20.6,47.1,22.8,45.9,24.8 M47.9,17.8c-0.9-2.7-2.7-4.8-5.2-5.9c-2.4-1.1-5.3-1.2-8.4-0.4
						c-0.2-3.2-1.1-6-2.9-7.9c-1.8-2-4.4-3.2-7.2-3.2h0c-2.8,0-5.4,1.2-7.2,3.2c-1.8,1.9-2.8,4.7-3,7.9c-3.1-0.8-6-0.7-8.4,0.4
						c-2.5,1.1-4.3,3.2-5.2,5.9s-0.6,5.5,0.7,7.8c1.3,2.3,3.6,4.1,6.6,5.2c-1.8,2.7-2.6,5.4-2.3,8.1c0.3,2.7,1.7,5.1,4,6.7
						c1.7,1.2,3.7,1.9,5.8,1.9c2.9,0,6.1-1.4,8.9-4.8c2,2.5,4.4,4.1,7,4.6c0.6,0.1,1.3,0.2,1.9,0.2c2,0,4-0.7,5.8-1.9
						c2.3-1.7,3.7-4.1,4-6.7c0.3-2.6-0.5-5.4-2.2-8c3-1.1,5.3-2.9,6.6-5.2C48.5,23.2,48.8,20.5,47.9,17.8"/>
				</g>
				<g id="Fill-4">
					<path class="st2" d="M40.8,21.1c-0.7,0.2-1.4-0.1-1.6-0.8c-0.2-0.7,0.1-1.4,0.8-1.6c0.7-0.2,1.4,0.1,1.6,0.8
						C41.8,20.1,41.5,20.9,40.8,21.1 M22.9,8.4c0-0.7,0.6-1.3,1.3-1.3s1.3,0.6,1.3,1.3s-0.6,1.3-1.3,1.3S22.9,9.1,22.9,8.4
						 M33.7,37.8c0.6-0.4,1.4-0.3,1.8,0.3c0.4,0.6,0.3,1.4-0.3,1.8c-0.6,0.4-1.4,0.3-1.8-0.3C33,39,33.1,38.2,33.7,37.8 M15.5,39.8
						c-0.4,0.6-1.2,0.7-1.8,0.3c-0.6-0.4-0.7-1.2-0.3-1.8c0.4-0.6,1.2-0.7,1.8-0.3C15.8,38.4,15.9,39.2,15.5,39.8 M9.4,20.6
						c-0.2,0.7-1,1.1-1.6,0.8c-0.7-0.2-1.1-0.9-0.8-1.6c0.2-0.7,1-1.1,1.6-0.8C9.2,19.2,9.6,19.9,9.4,20.6 M43,19
						c-0.5-1.4-2-2.2-3.5-1.7c-1.2,0.4-1.9,1.6-1.9,2.8L25,24.2L25,11c1.2-0.3,2-1.4,2-2.6c0-1.5-1.2-2.8-2.8-2.8
						c-1.5,0-2.8,1.2-2.8,2.8c0,1.3,0.9,2.3,2,2.6l0.1,13.3l-12.6-4c0-1.2-0.7-2.3-1.9-2.7c-1.4-0.5-3,0.3-3.5,1.8
						c-0.5,1.4,0.3,3,1.8,3.5c1.2,0.4,2.5-0.1,3.1-1.1l12.7,4l-7.7,10.8c-1.1-0.4-2.4-0.1-3.2,1c-0.9,1.2-0.6,3,0.6,3.8
						c1.2,0.9,3,0.6,3.8-0.6c0.7-1,0.7-2.4-0.1-3.3l7.8-10.8l7.9,10.7c-0.7,0.9-0.8,2.3-0.1,3.3c0.9,1.2,2.6,1.5,3.9,0.6
						c1.2-0.9,1.5-2.6,0.6-3.8c-0.7-1-2.1-1.4-3.2-0.9l-7.9-10.7l12.6-4.2c0.7,1,1.9,1.5,3.1,1.1C42.7,22,43.5,20.4,43,19"/>
				</g>
			</g>
		</g>
	</g>
</g>
</svg>
